<svg xmlns="http://www.w3.org/2000/svg" xmlns:xlink="http://www.w3.org/1999/xlink" fill="none" version="1.1" width="20" height="20" viewBox="0 0 20 20"><defs><clipPath id="master_svg0_2_034691"><rect x="0" y="0" width="20" height="20" rx="0"/></clipPath></defs><g clip-path="url(#master_svg0_2_034691)"><g><path d="M1.2659356269302369,9.700980000000001Q1.2175976269302369,9.76576,1.1921326269302368,9.842469999999999Q1.1666666269302368,9.91918,1.1666666269302368,10Q1.1666666269302368,10.080829999999999,1.1921326269302368,10.157530000000001Q1.2175976269302369,10.23424,1.2659356269302369,10.299019999999999Q5.146856626930237,15.5,9.999996626930237,15.5Q14.853166626930237,15.5,18.734066626930236,10.299019999999999Q18.782366626930237,10.23424,18.807866626930238,10.157530000000001Q18.833366626930236,10.080829999999999,18.833366626930236,10Q18.833366626930236,9.919170000000001,18.807866626930238,9.842469999999999Q18.782366626930237,9.76576,18.734066626930236,9.700980000000001Q14.853166626930237,4.499998,9.999996626930237,4.5Q5.146866626930237,4.5,1.2659356269302369,9.700980000000001ZM2.2948876269302367,10Q5.786146626930237,14.5,9.999996626930237,14.5Q14.213866626930237,14.5,17.705066626930236,10Q14.213866626930237,5.500002,9.999996626930237,5.5Q5.786136626930237,5.5,2.2948876269302367,10Z" fill-rule="evenodd" fill="#91929F" fill-opacity="1"/></g><g><path d="M8.173311507720948,8.173307507720947Q7.416666507720947,8.929946507720947,7.416666507720947,9.999996507720947Q7.416666507720947,11.070046507720948,8.173311507720948,11.826686507720947Q8.929956507720947,12.583336507720947,9.999996507720947,12.583336507720947Q11.070046507720948,12.583336507720947,11.826686507720947,11.826686507720947Q12.583336507720947,11.070046507720948,12.583336507720947,9.999996507720947Q12.583336507720947,8.929946507720947,11.826686507720947,8.173307507720947Q11.070046507720948,7.416666507720947,9.999996507720947,7.416666507720947Q8.929956507720947,7.416666507720947,8.173311507720948,8.173307507720947ZM8.880418507720947,11.119586507720948Q8.416666507720947,10.655826507720947,8.416666507720947,9.999996507720947Q8.416666507720947,9.344166507720947,8.880417507720948,8.880415507720947Q9.344166507720947,8.416666507720947,9.999996507720947,8.416666507720947Q10.655826507720947,8.416666507720947,11.119576507720947,8.880415507720947Q11.583336507720947,9.344166507720947,11.583336507720947,9.999996507720947Q11.583336507720947,10.655826507720947,11.119576507720947,11.119576507720947Q10.655826507720947,11.583336507720947,9.999996507720947,11.583336507720947Q9.344166507720947,11.583336507720947,8.880418507720947,11.119586507720948Z" fill-rule="evenodd" fill="#91929F" fill-opacity="1"/></g></g></svg>